<?xml version="1.0" standalone="no"?><!DOCTYPE svg PUBLIC "-//W3C//DTD SVG 1.1//EN" "http://www.w3.org/Graphics/SVG/1.1/DTD/svg11.dtd"><svg t="1591608859213" class="icon" viewBox="0 0 1024 1024" version="1.1" xmlns="http://www.w3.org/2000/svg" p-id="4058" xmlns:xlink="http://www.w3.org/1999/xlink" width="32" height="32"><defs><style type="text/css"></style></defs><path d="M558.306968 683.581022c3.025959 3.815523 6.226438 7.515638 9.321361 11.097529 2.610769 3.021737 5.313021 6.147623 7.843567 9.267879 8.20809 10.117962 8.127867 16.80885-0.315263 26.515845-2.037948 2.339137-4.265898 4.534716-6.624739 6.858371-2.211061 2.17869-4.496716 4.431974-6.655702 6.851334-0.830379 0.934529-1.676241 1.863428-2.524916 2.796549-4.016785 4.415085-8.172904 8.984987-11.307235 14.378231-9.224249 15.868692-9.317139 32.652209-0.268818 48.53216 8.474093 14.866607 22.59195 22.724248 40.827927 22.724248l0.022519 0c14.213563-0.002815 28.421496-0.00563 42.630836-0.00563l58.773975 0.002815 5.453763-0.023926c6.255994 0.002815 12.513396 0.007037 18.770798 0.008445 8.078607 0.004222 16.157214 0.009852 24.238635 0.009852 21.646162 0 38.167898-0.032371 53.579178-0.102742 5.24828-0.023926 10.426188-0.782527 14.977793-2.191357 14.198081-4.395381 25.021162-15.114313 29.696621-29.406692 4.842942-14.808902 2.084393-31.26449-7.376303-44.014333-4.543161-6.122289-9.911071-11.526793-15.103054-16.755368-2.081578-2.09706-4.23212-4.263084-6.264439-6.413626-12.158725-12.869474-12.292431-19.301396-0.68823-32.769025 7.574749-8.789355 14.931348-17.452042 21.668681-26.784663 28.781796-39.853991 38.77309-83.219502 29.698028-128.893186-6.56985-33.051917-19.694067-61.069482-39.00813-83.271576-19.587103-22.513135-45.613165-39.13339-77.357586-49.401947-18.886206-6.109622-37.603522-9.20736-55.6312-9.20736-41.956681 0-80.669252 16.420402-115.066664 48.809422-39.199539 36.906848-56.692397 84.168105-51.997235 140.470645C522.264278 624.363709 534.919824 654.10396 558.306968 683.581022L558.306968 683.581022zM596.718351 478.861527c13.851855-13.039772 28.539719-22.921287 43.656847-29.372913 14.741346-6.289772 30.320109-9.4804 46.305617-9.4804 14.189636 0 29.115355 2.50099 44.359151 7.431192 25.319536 8.189793 45.841167 21.176083 60.993481 38.594347 15.073498 17.321152 25.408203 39.649915 30.71841 66.367021 3.548113 17.85738 3.338407 35.358683-0.616451 52.019753-3.902783 16.449957-11.590127 32.695839-22.846694 48.290083-5.915398 8.194015-12.704805 16.179732-19.723623 24.321673-23.896631 27.730451-23.28581 55.26527 1.811353 81.828968 2.301136 2.439064 4.578346 4.733163 6.778148 6.949854l0.14215 0.143557c4.460123 4.489679 8.672539 8.730244 11.660498 12.755473 3.451001 4.64731 2.529139 9.104618 1.976022 10.800562-0.671341 2.0478-2.204024 4.716274-5.700062 5.798582-1.131568 0.347633-2.706474 0.547487-4.329232 0.554525-20.127553 0.091482-40.121401 0.102742-53.410287 0.102742l-24.214709-0.008445c-8.085644-0.00563-16.167065-0.00563-24.255524-0.00563l-24.206264 0.019704L631.256506 795.972176c-14.217785 0-28.427125 0-42.651947 0.008445-6.592368 0-7.711269-1.963355-9.003284-4.23212-2.569954-4.513605-2.543213-7.42697 0.112594-11.994057 1.183643-2.037948 4.001303-5.134278 6.728888-8.132089l0.146372-0.160446c0.881047-0.971122 1.762093-1.942243 2.647362-2.930254 1.376459-1.55098 3.220183-3.366555 5.006203-5.123019 2.479879-2.440471 5.566357-5.480504 8.544464-8.901949 20.019182-23.002918 20.430149-49.839656 1.134383-73.626508-2.834549-3.497446-5.670506-6.78237-8.414981-9.958924l-0.161854-0.188595c-2.831735-3.270851-5.757767-6.652887-8.341795-9.911071-18.755316-23.641888-28.857797-46.930513-30.883078-71.204333-1.850761-22.224613 0.554525-42.730763 7.15393-60.948444C569.953392 510.220314 581.207144 493.463538 596.718351 478.861527L596.718351 478.861527z" p-id="4059"></path><path d="M965.551787 899.440269c-0.038-13.930671-4.651532-25.886727-13.345183-34.570526-8.700688-8.696465-20.663781-13.290293-34.594452-13.290293-151.925659-0.038-303.856949-0.050667-455.806534-0.014074-26.952146 0-46.612435 19.487176-46.744733 46.339395-0.070371 14.977793-0.04363 30.190626-0.018296 44.902416l0.007037 3.988636c0.002815 1.773353 0.115409 3.51715 0.222373 5.206057 0.052075 0.803638 0.105557 1.626981 0.146372 2.472842l0.264595 5.317243 549.884303 0 0-5.594506c0-5.55932 0.002815-11.079232 0.00563-16.565366C965.579935 924.514913 965.58838 912.122556 965.551787 899.440269L965.551787 899.440269zM451.689063 898.082106c0.032371-6.561405 3.436926-9.888552 10.122185-9.888552 62.194013-0.015482 124.411952-0.015482 186.601742-0.015482 87.149026 0 177.718089 0.007037 269.192126 0.028148 2.291284 0 6.472737 0.333559 8.707725 2.562917 2.257506 2.261728 2.606547 6.469923 2.610769 8.776688 0.022519 7.892827 0.028148 15.682912 0.028148 23.615147L451.642618 923.160973C451.638395 913.35968 451.65247 905.459816 451.689063 898.082106L451.689063 898.082106z" p-id="4060"></path><path d="M444.135425 987.043893 936.488506 987.043893 936.488506 1024 444.135425 1024 444.135425 987.043893Z" p-id="4061"></path><path d="M134.479894 475.086819c-17.069223-85.347525-4.268713-179.228254 46.941772-256.041167 46.940365-76.814321 128.020584-128.020584 213.369516-145.092622 21.336529-4.267306 46.941772-8.533204 72.547015-8.533204 89.614831 0 179.228254 34.138447 243.240657 102.418156l64.009588-21.337937C697.772714 56.882399 582.55264 1.407423 467.336789 1.407423c-29.872549 0-55.476384 4.267306-85.35034 8.533204C275.302395 35.54587 185.688972 95.290967 125.945282 189.171696 66.201593 278.786527 44.865063 385.473396 70.468899 496.423348c34.138447 157.89454 162.161845 281.649225 320.05357 311.518958l42.673059-59.742282C283.838414 726.864903 164.351035 615.912135 134.479894 475.086819L134.479894 475.086819z" p-id="4062"></path><path d="M452.716481 376.819153 297.0893 513.540424l47.159923 33.143399 169.773188-149.151629L514.02241 183.232372l-61.307336 0 0 192.51151L452.715074 183.232372 452.715074 376.819153z" p-id="4063"></path></svg>