<?xml version="1.0" standalone="no"?><!DOCTYPE svg PUBLIC "-//W3C//DTD SVG 1.1//EN" "http://www.w3.org/Graphics/SVG/1.1/DTD/svg11.dtd"><svg t="1576635113239" class="icon" viewBox="0 0 1027 1024" version="1.1" xmlns="http://www.w3.org/2000/svg" p-id="3206" xmlns:xlink="http://www.w3.org/1999/xlink" width="24.0703125" height="24"><defs><style type="text/css"></style></defs><path d="M758.309455 723.654934c-24.7343 0-39.574879-14.133885-39.574879-37.454796V545.567978c0-38.868185-25.440994-38.868185-34.62802-38.868185-44.521739 0-45.228433 44.521739-45.228433 44.521739v134.271912c0 22.614217-14.84058 37.454796-38.161491 37.454796-24.7343 0-39.574879-14.133885-39.574879-37.454796v-212.008282c0-23.320911 14.84058-38.161491 38.868185-38.161491 17.667357 0 29.681159 7.773637 36.041408 20.494134 14.133885-10.600414 34.628019-20.494134 62.89579-20.494134 62.189096 0 98.937198 38.161491 98.937198 103.177364V686.200138c0 14.133885-5.653554 22.614217-9.89372 26.854382-7.773637 7.066943-17.667357 10.600414-29.681159 10.600414z m-265.717046-8.480331H338.533057c-48.761905 0-70.669427-21.907522-70.669427-69.962733V428.256729c0-48.761905 21.907522-69.962733 70.669427-69.962733h146.992409c22.614217 0 37.454796 14.133885 37.454796 36.748102s-14.84058 37.454796-37.454796 37.454796H352.666943c-2.826777 0-3.533471 0.706694-4.240166 0.706695v63.602484h121.551415c34.628019 0 37.454796 27.561077 37.454796 36.041408 0 21.907522-14.84058 36.748102-37.454796 36.748102H348.426777v68.549345c0 2.120083 0 3.533471 0.706694 3.533471h143.458938c25.440994 0 37.454796 18.374051 37.454796 36.748102-0.706694 22.614217-14.84058 36.748102-37.454796 36.748102z" fill="" p-id="3207"></path><path d="M510.259765 1024c-281.26432 0-510.233264-229.675638-510.233264-511.646653 0-40.988268 4.94686-81.269841 14.133885-120.84472 4.94686-21.200828 27.561077-35.334714 49.4686-30.387854 10.600414 2.826777 19.78744 9.187026 25.440993 18.374051 5.653554 9.187026 7.066943 20.494134 4.94686 31.094548-7.773637 33.214631-12.013803 67.135956-12.013802 101.763975 0 237.449275 192.220842 430.376812 428.963423 430.376812 22.614217 0 40.988268 18.374051 40.988267 40.988268-0.706694 21.907522-19.080745 40.281573-41.694962 40.281573z m455.817806-354.05383c-12.720497 0-24.7343-5.653554-32.507937-15.547274a39.362871 39.362871 0 0 1-7.066942-35.334714c8.480331-34.628019 13.427191-70.669427 13.427191-106.710835 0-237.449275-192.220842-430.376812-428.963423-430.376811-22.614217 0-40.988268-18.374051-40.988268-40.988268 0-22.614217 18.374051-40.988268 40.988268-40.988268 281.26432 0 510.233264 229.675638 510.233264 511.646653 0 43.108351-5.653554 85.510007-15.547274 126.498275-4.94686 19.080745-21.200828 31.801242-39.574879 31.801242z m0 0" fill="" p-id="3208"></path></svg>