<?xml version="1.0" standalone="no"?><!DOCTYPE svg PUBLIC "-//W3C//DTD SVG 1.1//EN" "http://www.w3.org/Graphics/SVG/1.1/DTD/svg11.dtd"><svg t="1576635100705" class="icon" viewBox="0 0 1030 1024" version="1.1" xmlns="http://www.w3.org/2000/svg" p-id="2437" xmlns:xlink="http://www.w3.org/1999/xlink" width="24.140625" height="24"><defs><style type="text/css"></style></defs><path d="M502.515905 766.41213c-26.111647 0-40.931771-14.114404-40.931771-38.814611V637.971054H364.194747c-52.223294 0-75.512061-23.288766-75.512061-75.51206V455.189524c0-52.223294 23.288766-75.512061 75.512061-75.51206h97.389387v-35.99173c0-23.994487 14.820124-38.10889 38.81461-38.10889 34.580289 0 41.637491 20.465886 41.637492 38.10889v35.99173h98.800827c52.223294 0 75.512061 23.288766 75.51206 75.51206v107.26947c0 52.223294-23.288766 75.512061-75.51206 75.51206H542.741956v89.626465c0 24.700207-14.820124 38.814611-40.226051 38.814611z m-125.618195-310.516885c-7.057202 0-7.762922 0.70572-7.762922 7.762922v89.626464c0 7.762922 0.70572 8.468642 7.762922 8.468643h85.392144v-105.858029H376.89771z m165.844246 105.858029h86.097863c7.057202 0 7.762922-0.70572 7.762922-7.762923V464.363887c0-7.057202-0.70572-7.762922-7.762922-7.762922H542.741956v105.152309z m0 0M510.984547 1024c-281.582357 0-510.94142-229.359063-510.94142-511.64714 0-40.931771 4.940041-81.157822 14.114404-120.678153 4.940041-21.877326 27.523088-35.28601 49.400414-30.345968 10.585803 2.822881 19.760165 9.174363 25.405927 18.348725 5.645762 9.174363 7.762922 20.465886 4.940041 31.051688-7.762922 33.168849-11.997243 67.043418-11.997243 101.623708 0 237.121985 192.661613 430.489318 429.077877 430.489318 22.583046 0 40.931771 18.348725 40.931771 40.931771 0 21.877326-18.348725 40.226051-40.931771 40.226051z m455.895245-354.271537c-12.702963 0-24.700207-5.645762-32.463129-15.525844a39.308615 39.308615 0 0 1-7.057202-35.28601c8.468642-34.580289 13.408684-70.572019 13.408684-106.563749 0-237.121985-192.661613-430.489318-429.077878-430.489318-22.583046 0-40.931771-18.348725-40.931771-40.931771 0-22.583046 18.348725-40.931771 40.931771-40.931771 281.582357 0 510.94142 229.359063 510.94142 511.64714 0 43.048932-5.645762 85.392143-15.525844 127.029635-5.645762 18.348725-21.877326 31.051688-40.226051 31.051688z m0 0" fill="" p-id="2438"></path></svg>